<svg xmlns="http://www.w3.org/2000/svg" width="64" height="64" id="web"><g transform="translate(-181.166 -1673.256) scale(1.71633)"><rect width="41.655" height="47.127" x="113.74" y="980.472" fill="#30404d" rx="0" ry="0"></rect><path fill="#ccc" stroke="#2bc3ef" stroke-width=".662" d="M118.44 1001.513h9.304"></path><path fill="#ccc" stroke="#b2b2b2" stroke-width=".662" d="M118.577 1005.319h12.862"></path><path fill="#ccc" stroke="#ef4c45" stroke-width=".662" d="M126.686 1007.14h3.735m1.809 0h3.735"></path><path fill="#ccc" stroke="#b2b2b2" stroke-width=".662" d="M117.733 1010.945h9.304m1.842 0h9.304m-21.195 3.434h9.304"></path><path fill="#ccc" stroke="#ef4c45" stroke-width=".662" d="M116.84 1018.168h3.734m17.624-11.029h3.734"></path><path fill="#ccc" stroke="#b2b2b2" stroke-width=".662" d="M122.442 1018.139h3.735"></path><path fill="#ccc" stroke="#2bc3ef" stroke-width=".662" d="M130.41 1018.168h3.734m1.868-.03h3.734"></path><path fill="#ccc" stroke="#b2b2b2" stroke-width=".662" d="M141.745 1010.97h3.735m1.868-.03h3.734m-22.203 10.266h22.046m-34.127 0h10.132"></path><path fill="#ccc" stroke="#ef4c45" stroke-width=".662" d="M128.879 1024.35h8.228"></path><path fill="#ccc" stroke="#b2b2b2" stroke-width=".662" d="M147.513 1018.139h3.735"></path><path fill="#ccc" stroke="#ef4c45" stroke-width=".662" d="M151.568 1005.644h3.734"></path><path fill="#ccc" stroke="#b2b2b2" stroke-width=".662" d="M132.13 999.775h9.304"></path><path fill="#ccc" stroke="#2bc3ef" stroke-width=".662" d="M134.836 1014.504h9.304"></path><path fill="#ccc" stroke="#ef4c45" stroke-width=".662" d="M118.577 998.569h12.862"></path><path fill="#ccc" stroke="#b2b2b2" stroke-width=".662" d="M118.577 992.819h28.987m-28.987 1.75h28.987"></path><path fill="#ccc" stroke="#ef4c45" stroke-width=".662" d="M118.452 986.194h12.862"></path><path fill="#ccc" stroke="#b2b2b2" stroke-width=".662" d="M118.452 988.069h22.487"></path><path fill="#ccc" stroke="#2bc3ef" stroke-width=".662" d="M118.452 990.569h22.487"></path><rect width="41.655" height="4.627" x="113.74" y="980.472" fill="#202a33" rx="0" ry="0"></rect></g></svg>